<?xml version="1.0" encoding="UTF-8"?>
<svg width="56px" height="56px" viewBox="0 0 56 56" version="1.1" xmlns="http://www.w3.org/2000/svg" xmlns:xlink="http://www.w3.org/1999/xlink">
    <!-- Generator: Sketch 61.2 (89653) - https://sketch.com -->
    <title>Facebook Copy</title>
    <desc>Created with Sketch.</desc>
    <defs>
        <polygon id="path-1" points="0.00325413223 0.00220039293 55.5371901 0.00220039293 55.5371901 55.9878978 0.00325413223 55.9878978"></polygon>
    </defs>
    <g id="Facebook-Copy" stroke="none" stroke-width="1" fill="none" fill-rule="evenodd">
        <g id="f_logo_RGB-Blue_1024">
            <g id="Group-3">
                <mask id="mask-2" fill="white">
                    <use xlink:href="#path-1"></use>
                </mask>
                <g id="Clip-2"></g>
                <path d="M55.5371901,28.1650295 C55.5371901,12.6099018 43.1047779,0 27.768595,0 C12.4324122,0 0,12.6099018 0,28.1650295 C0,42.2230098 10.1545739,53.8749705 23.4297521,55.9878978 L23.4297521,36.3064833 L16.3791322,36.3064833 L16.3791322,28.1650295 L23.4297521,28.1650295 L23.4297521,21.9599214 C23.4297521,14.9010609 27.5754081,11.0019646 33.9183626,11.0019646 C36.9564747,11.0019646 40.1342975,11.5520629 40.1342975,11.5520629 L40.1342975,18.4833006 L36.6327428,18.4833006 C33.1831999,18.4833006 32.107438,20.6543733 32.107438,22.881721 L32.107438,28.1650295 L39.8088843,28.1650295 L38.5777376,36.3064833 L32.107438,36.3064833 L32.107438,55.9878978 C45.3826162,53.8749705 55.5371901,42.2230098 55.5371901,28.1650295" id="Fill-1" fill="#1877F2" mask="url(#mask-2)"></path>
            </g>
            <path d="M38.4273973,35.6796117 L39.6712329,27.4174757 L31.890411,27.4174757 L31.890411,22.0558519 C31.890411,19.7954879 32.9772603,17.592233 36.4623562,17.592233 L40,17.592233 L40,10.5582524 C40,10.5582524 36.7894247,10 33.72,10 C27.3116712,10 23.1232877,13.9568932 23.1232877,21.1203883 L23.1232877,27.4174757 L16,27.4174757 L16,35.6796117 L23.1232877,35.6796117 L23.1232877,55.652767 C24.5516164,55.8810922 26.0155616,56 27.5068493,56 C28.998137,56 30.4620822,55.8810922 31.890411,55.652767 L31.890411,35.6796117 L38.4273973,35.6796117" id="Fill-4" fill="#FFFFFF"></path>
        </g>
    </g>
</svg>