<?xml version="1.0" encoding="UTF-8"?>
<svg width="30px" height="30px" viewBox="0 0 30 30" version="1.1" xmlns="http://www.w3.org/2000/svg" xmlns:xlink="http://www.w3.org/1999/xlink">
    <title>Logo / Instagram</title>
    <defs>
        <radialGradient cx="26.5626266%" cy="107.702106%" fx="26.5626266%" fy="107.702106%" r="99.8425262%" gradientTransform="translate(0.265626,1.077021),scale(1.000000,0.992637),rotate(-90.000000),translate(-0.265626,-1.077021)" id="radialGradient-1">
            <stop stop-color="#FFDD55" offset="0%"></stop>
            <stop stop-color="#FFDD55" offset="10%"></stop>
            <stop stop-color="#FF543E" offset="50%"></stop>
            <stop stop-color="#C837AB" offset="100%"></stop>
        </radialGradient>
        <radialGradient cx="-16.7505274%" cy="7.20383154%" fx="-16.7505274%" fy="7.20383154%" r="44.6174043%" gradientTransform="translate(-0.167505,0.072038),scale(1.000000,0.992637),rotate(78.761861),translate(0.167505,-0.072038)" id="radialGradient-2">
            <stop stop-color="#3771C8" offset="0%"></stop>
            <stop stop-color="#3771C8" offset="12.8%"></stop>
            <stop stop-color="#6600FF" stop-opacity="0" offset="100%"></stop>
        </radialGradient>
    </defs>
    <g id="Footer" stroke="none" stroke-width="1" fill="none" fill-rule="evenodd">
        <g id="Footer-Medium" transform="translate(-701.000000, -784.000000)">
            <g id="Slot-4" transform="translate(700.000000, 581.000000)">
                <g id="Social" transform="translate(0.000000, 170.000000)">
                    <g id="Logo-/-Instagram" transform="translate(1.000000, 33.000000)">
                        <g id="Instagram_logo_2016">
                            <path d="M14.8932824,0 C8.67755725,0 6.85969466,0.00646153846 6.50633588,0.036 C5.23076336,0.142846154 4.4370229,0.345230769 3.57229008,0.779076923 C2.90587786,1.11253846 2.38030534,1.49907692 1.86160305,2.04092308 C0.916946565,3.02907692 0.344427481,4.24476923 0.137175573,5.68984615 C0.0364122137,6.39138462 0.00709923664,6.53446154 0.00114503817,10.1178462 C-0.00114503817,11.3123077 0.00114503817,12.8843077 0.00114503817,14.9928462 C0.00114503817,21.2513077 0.00801526718,23.0813077 0.0377862595,23.4366923 C0.140839695,24.6874615 0.335496183,25.4743846 0.747709924,26.3351538 C1.53549618,27.9828462 3.04007634,29.2197692 4.81259542,29.6813077 C5.42633588,29.8405385 6.10419847,29.9282308 6.97442748,29.9697692 C7.34312977,29.9859231 11.101145,29.9974615 14.8614504,29.9974615 C18.6217557,29.9974615 22.3820611,29.9928462 22.7416031,29.9743846 C23.7492366,29.9266154 24.3343511,29.8474615 24.9812977,29.679 C26.7652672,29.2151538 28.2423664,27.9966923 29.0461832,26.3259231 C29.4503817,25.4859231 29.6553435,24.669 29.7480916,23.4835385 C29.7682443,23.2250769 29.7767176,19.1042308 29.7767176,14.9889231 C29.7767176,10.8729231 29.7675573,6.75969231 29.7474046,6.50123077 C29.6535115,5.29661538 29.4485496,4.48661538 29.0312977,3.63046154 C28.6889313,2.92961538 28.3087786,2.40623077 27.7568702,1.87107692 C26.7719084,0.923076923 25.5673282,0.346153846 24.1319084,0.137538462 C23.4364122,0.0362307692 23.2978626,0.00623076923 19.739084,0 L14.8932824,0 Z" id="Path" fill="url(#radialGradient-1)" fill-rule="nonzero"></path>
                            <path d="M14.8932824,0 C8.67755725,0 6.85969466,0.00646153846 6.50633588,0.036 C5.23076336,0.142846154 4.4370229,0.345230769 3.57229008,0.779076923 C2.90587786,1.11253846 2.38030534,1.49907692 1.86160305,2.04092308 C0.916946565,3.02907692 0.344427481,4.24476923 0.137175573,5.68984615 C0.0364122137,6.39138462 0.00709923664,6.53446154 0.00114503817,10.1178462 C-0.00114503817,11.3123077 0.00114503817,12.8843077 0.00114503817,14.9928462 C0.00114503817,21.2513077 0.00801526718,23.0813077 0.0377862595,23.4366923 C0.140839695,24.6874615 0.335496183,25.4743846 0.747709924,26.3351538 C1.53549618,27.9828462 3.04007634,29.2197692 4.81259542,29.6813077 C5.42633588,29.8405385 6.10419847,29.9282308 6.97442748,29.9697692 C7.34312977,29.9859231 11.101145,29.9974615 14.8614504,29.9974615 C18.6217557,29.9974615 22.3820611,29.9928462 22.7416031,29.9743846 C23.7492366,29.9266154 24.3343511,29.8474615 24.9812977,29.679 C26.7652672,29.2151538 28.2423664,27.9966923 29.0461832,26.3259231 C29.4503817,25.4859231 29.6553435,24.669 29.7480916,23.4835385 C29.7682443,23.2250769 29.7767176,19.1042308 29.7767176,14.9889231 C29.7767176,10.8729231 29.7675573,6.75969231 29.7474046,6.50123077 C29.6535115,5.29661538 29.4485496,4.48661538 29.0312977,3.63046154 C28.6889313,2.92961538 28.3087786,2.40623077 27.7568702,1.87107692 C26.7719084,0.923076923 25.5673282,0.346153846 24.1319084,0.137538462 C23.4364122,0.0362307692 23.2978626,0.00623076923 19.739084,0 L14.8932824,0 Z" id="Path" fill="url(#radialGradient-2)" fill-rule="nonzero"></path>
                            <path d="M14.8864122,3.92307692 C11.9010687,3.92307692 11.5264122,3.93623077 10.3538931,3.99 C9.18366412,4.044 8.3848855,4.23069231 7.6859542,4.50461538 C6.9629771,4.78753846 6.34969466,5.166 5.73870229,5.78192308 C5.12725191,6.39761538 4.75167939,7.01561538 4.47,7.74392308 C4.19748092,8.44846154 4.01198473,9.25361538 3.95931298,10.4323846 C3.90687023,11.6139231 3.89312977,11.9916923 3.89312977,15 C3.89312977,18.0083077 3.90641221,18.3846923 3.95954198,19.5662308 C4.01335878,20.7454615 4.19862595,21.5503846 4.47022901,22.2546923 C4.75122137,22.9832308 5.12679389,23.6012308 5.73801527,24.2169231 C6.34877863,24.8330769 6.96206107,25.2124615 7.68458015,25.4953846 C8.38396947,25.7693077 9.1829771,25.956 10.3529771,26.01 C11.5254962,26.0637692 11.8999237,26.0769231 14.8850382,26.0769231 C17.8706107,26.0769231 18.2441221,26.0637692 19.4166412,26.01 C20.5868702,25.956 21.3865649,25.7693077 22.0859542,25.4953846 C22.8087023,25.2124615 23.4210687,24.8330769 24.0318321,24.2169231 C24.6432824,23.6012308 25.018855,22.9832308 25.3005344,22.2549231 C25.5707634,21.5503846 25.7562595,20.7452308 25.8112214,19.5664615 C25.8638931,18.3849231 25.8776336,18.0083077 25.8776336,15 C25.8776336,11.9916923 25.8638931,11.6141538 25.8112214,10.4326154 C25.7562595,9.25338462 25.5707634,8.44846154 25.3005344,7.74415385 C25.018855,7.01561538 24.6432824,6.39761538 24.0318321,5.78192308 C23.4203817,5.16576923 22.8089313,4.78730769 22.0852672,4.50461538 C21.3845038,4.23069231 20.5852672,4.044 19.4150382,3.99 C18.2425191,3.93623077 17.8692366,3.92307692 14.8829771,3.92307692 L14.8864122,3.92307692 Z M13.9003053,5.91923077 C14.1929771,5.91876923 14.519542,5.91923077 14.8864122,5.91923077 C17.821374,5.91923077 18.1692366,5.92984615 19.3282443,5.98292308 C20.4,6.03230769 20.9816794,6.21276923 21.3691603,6.36438462 C21.8821374,6.56515385 22.2478626,6.80515385 22.6323664,7.19284615 C23.0170992,7.58053846 23.2552672,7.94976923 23.4549618,8.46669231 C23.6054198,8.85669231 23.7847328,9.44284615 23.8335115,10.5228462 C23.8861832,11.6905385 23.8976336,12.0413077 23.8976336,14.9974615 C23.8976336,17.9536154 23.8861832,18.3043846 23.8335115,19.4720769 C23.7845038,20.5520769 23.6054198,21.1382308 23.4549618,21.5282308 C23.2557252,22.0451538 23.0170992,22.4132308 22.6323664,22.8006923 C22.2476336,23.1883846 21.8823664,23.4283846 21.3691603,23.6291538 C20.9821374,23.7814615 20.4,23.9614615 19.3282443,24.0108462 C18.1694656,24.0639231 17.821374,24.0754615 14.8864122,24.0754615 C11.9512214,24.0754615 11.6033588,24.0639231 10.4445802,24.0108462 C9.37282443,23.961 8.79114504,23.7805385 8.40343511,23.6289231 C7.89045802,23.4281538 7.5240458,23.1881538 7.13931298,22.8004615 C6.75458015,22.4127692 6.51641221,22.0444615 6.31671756,21.5273077 C6.16625954,21.1373077 5.98694656,20.5511538 5.93816794,19.4711538 C5.88549618,18.3034615 5.87496183,17.9526923 5.87496183,14.9946923 C5.87496183,12.0366923 5.88549618,11.6877692 5.93816794,10.5200769 C5.98717557,9.44007692 6.16625954,8.85392308 6.31671756,8.46346154 C6.5159542,7.94653846 6.75458015,7.57730769 7.13931298,7.18961538 C7.5240458,6.80192308 7.89045802,6.56192308 8.40343511,6.36069231 C8.79091603,6.20838462 9.37282443,6.02838462 10.4445802,5.97876923 C11.458626,5.93261538 11.8516031,5.91876923 13.9003053,5.91646154 L13.9003053,5.91923077 Z M20.7540458,7.75846154 C20.0258015,7.75846154 19.4349618,8.35315385 19.4349618,9.08723077 C19.4349618,9.82107692 20.0258015,10.4164615 20.7540458,10.4164615 C21.4822901,10.4164615 22.0731298,9.82107692 22.0731298,9.08723077 C22.0731298,8.35338462 21.4822901,7.758 20.7540458,7.758 L20.7540458,7.75846154 Z M14.8864122,9.31153846 C11.7689313,9.31153846 9.24137405,11.8585385 9.24137405,15 C9.24137405,18.1414615 11.7689313,20.6873077 14.8864122,20.6873077 C18.0038931,20.6873077 20.5305344,18.1414615 20.5305344,15 C20.5305344,11.8585385 18.0036641,9.31153846 14.8861832,9.31153846 L14.8864122,9.31153846 Z M14.8864122,11.3076923 C16.9099237,11.3076923 18.5505344,12.9606923 18.5505344,15 C18.5505344,17.0390769 16.9099237,18.6923077 14.8864122,18.6923077 C12.8626718,18.6923077 11.2222901,17.0390769 11.2222901,15 C11.2222901,12.9606923 12.8626718,11.3076923 14.8864122,11.3076923 Z" id="Shape" fill="#FFFFFF" fill-rule="nonzero"></path>
                        </g>
                    </g>
                </g>
            </g>
        </g>
    </g>
</svg>